<svg width="123" height="25" viewBox="0 0 123 25" fill="none" xmlns="http://www.w3.org/2000/svg">
<path opacity="0.87" d="M12.58 24.51C11.0613 24.51 9.792 24 8.772 22.98C8.34133 22.5267 7.96733 22.0167 7.65 21.45C7.49133 21.9487 7.21933 22.402 6.834 22.81C5.97267 23.7167 4.71467 24.17 3.06 24.17H2.72V1.22L0.68 0.709998V0.199998H5.1C7.14 0.199998 8.16 1.22 8.16 3.26V7.85C8.52267 7.55533 8.874 7.32867 9.214 7.17C10.03 6.71667 10.982 6.49 12.07 6.49C14.3593 6.49 16.1727 7.272 17.51 8.836C18.87 10.3773 19.55 12.5987 19.55 15.5C19.55 17.4267 19.244 19.07 18.632 20.43C18.02 21.7673 17.1927 22.7873 16.15 23.49C15.1073 24.17 13.9173 24.51 12.58 24.51ZM11.22 23.32C11.9453 23.32 12.546 22.7533 13.022 21.62C13.5207 20.464 13.77 18.424 13.77 15.5C13.77 12.44 13.498 10.3433 12.954 9.21C12.4327 8.07667 11.6847 7.51 10.71 7.51C10.1207 7.51 9.52 7.73667 8.908 8.19C8.72667 8.326 8.47733 8.55267 8.16 8.87V20.6C8.364 21.1213 8.61333 21.5747 8.908 21.96C9.588 22.8667 10.3587 23.32 11.22 23.32ZM31.288 24.51C28.4773 24.51 26.2673 23.7167 24.658 22.13C23.0713 20.5207 22.278 18.3107 22.278 15.5C22.278 12.6893 23.0713 10.4907 24.658 8.904C26.2673 7.29467 28.4773 6.49 31.288 6.49C34.0986 6.49 36.2973 7.29467 37.884 8.904C39.4933 10.4907 40.298 12.6893 40.298 15.5C40.298 18.3107 39.4933 20.5207 37.884 22.13C36.2973 23.7167 34.0986 24.51 31.288 24.51ZM31.288 23.83C32.1946 23.83 32.954 23.1953 33.566 21.926C34.2006 20.6567 34.518 18.5147 34.518 15.5C34.518 12.4853 34.2006 10.3433 33.566 9.074C32.954 7.80467 32.1946 7.17 31.288 7.17C30.3813 7.17 29.6106 7.80467 28.976 9.074C28.364 10.3433 28.058 12.4853 28.058 15.5C28.058 18.5147 28.364 20.6567 28.976 21.926C29.6106 23.1953 30.3813 23.83 31.288 23.83ZM51.1899 24.51C49.9206 24.51 48.7759 24.2493 47.7559 23.728C46.7586 23.184 45.9766 22.4813 45.4099 21.62C44.8433 20.7587 44.5599 19.852 44.5599 18.9V8.02L42.5199 7.51V7H46.9399C48.9799 7 49.9999 8.02 49.9999 10.06V18.9C49.9999 20.328 50.2493 21.4273 50.7479 22.198C51.2693 22.946 51.8699 23.32 52.5499 23.32C53.3886 23.32 54.1479 22.8667 54.8279 21.96C55.0773 21.62 55.3379 21.1667 55.6099 20.6V8.02L53.5699 7.51V7H63.0899V7.51L61.0499 8.02V24.17H60.7099C59.0553 24.17 57.7973 23.7167 56.9359 22.81C56.5506 22.402 56.2786 21.9487 56.1199 21.45C55.8026 22.0167 55.4286 22.5267 54.9979 22.98C53.9779 24 52.7086 24.51 51.1899 24.51ZM65.1432 23.49L67.1832 22.98V8.02L65.1432 7.51V7H68.2032C69.5405 7 70.5945 7.43067 71.3652 8.292C71.6599 8.632 71.9092 9.05133 72.1132 9.55C72.4305 8.96067 72.8045 8.45067 73.2352 8.02C74.2552 7 75.5245 6.49 77.0432 6.49C78.3125 6.49 79.4459 6.762 80.4432 7.306C81.4632 7.82733 82.2565 8.51867 82.8232 9.38C83.3899 10.2413 83.6732 11.148 83.6732 12.1V22.98L85.7132 23.49V24H81.2932C79.2532 24 78.2332 22.98 78.2332 20.94V12.1C78.2332 10.672 77.9725 9.584 77.4512 8.836C76.9525 8.06533 76.3632 7.68 75.6832 7.68C74.8219 7.68 74.0512 8.13333 73.3712 9.04C73.0765 9.42533 72.8272 9.87867 72.6232 10.4V22.98L74.6632 23.49V24H65.1432V23.49ZM96.9345 24.51C94.0332 24.51 91.7779 23.7167 90.1685 22.13C88.5592 20.5207 87.7545 18.3107 87.7545 15.5C87.7545 12.6893 88.5592 10.4907 90.1685 8.904C91.7779 7.29467 94.0332 6.49 96.9345 6.49C99.0199 6.49 100.584 6.85267 101.627 7.578C102.692 8.30333 103.225 9.18733 103.225 10.23C103.225 11.0007 102.987 11.624 102.511 12.1C102.057 12.5533 101.445 12.78 100.675 12.78C100.357 12.78 100.04 12.7573 99.7225 12.712L99.3145 12.61V7.51L98.8385 7.34C98.4985 7.22667 98.0905 7.17 97.6145 7.17C96.3225 7.17 95.3139 7.782 94.5885 9.006C93.8859 10.23 93.5345 12.3947 93.5345 15.5C93.5345 18.5147 93.8859 20.634 94.5885 21.858C95.3139 23.0593 96.3225 23.66 97.6145 23.66C98.4985 23.66 99.3145 23.456 100.063 23.048C100.833 22.6173 101.434 22.062 101.865 21.382C102.318 20.6793 102.545 19.9653 102.545 19.24H103.395C103.395 20.1467 103.123 21.008 102.579 21.824C102.035 22.64 101.275 23.2973 100.301 23.796C99.3259 24.272 98.2039 24.51 96.9345 24.51ZM114.964 24.51C112.062 24.51 109.807 23.7167 108.198 22.13C106.588 20.5207 105.784 18.3107 105.784 15.5C105.784 13.664 106.135 12.066 106.838 10.706C107.54 9.346 108.515 8.30333 109.762 7.578C111.031 6.85267 112.482 6.49 114.114 6.49C115.746 6.49 117.174 6.796 118.398 7.408C119.644 8.02 120.596 8.84733 121.254 9.89C121.934 10.91 122.274 12.0433 122.274 13.29C122.274 13.8567 122.217 14.344 122.104 14.752L121.934 15.33C120.959 15.534 119.905 15.704 118.772 15.84C116.392 16.18 113.989 16.35 111.564 16.35C111.564 18.9793 111.926 20.8607 112.652 21.994C113.377 23.1047 114.374 23.66 115.644 23.66C116.528 23.66 117.344 23.456 118.092 23.048C118.862 22.6173 119.463 22.062 119.894 21.382C120.347 20.6793 120.574 19.9653 120.574 19.24H121.424C121.424 20.1467 121.152 21.008 120.608 21.824C120.064 22.64 119.304 23.2973 118.33 23.796C117.355 24.272 116.233 24.51 114.964 24.51ZM111.564 15.5C113.014 15.5 114.193 15.4433 115.1 15.33C115.485 15.3073 115.893 15.2507 116.324 15.16C116.346 15.0467 116.403 14.7973 116.494 14.412C116.607 13.8453 116.664 13.2447 116.664 12.61C116.664 10.7287 116.414 9.35733 115.916 8.496C115.417 7.612 114.816 7.17 114.114 7.17C112.414 7.17 111.564 9.94667 111.564 15.5Z" fill="black"/>
</svg>
