<svg width="337" height="152" viewBox="0 0 337 152" fill="none" xmlns="http://www.w3.org/2000/svg">
<path d="M75.68 83.96C72.8213 83.96 70.432 83 68.512 81.08C67.7013 80.2267 66.9973 79.2667 66.4 78.2C66.1013 79.1387 65.5893 79.992 64.864 80.76C63.2427 82.4667 60.8747 83.32 57.76 83.32H57.12V40.12L53.28 39.16V38.2H61.6C65.44 38.2 67.36 40.12 67.36 43.96V52.6C68.0427 52.0453 68.704 51.6187 69.344 51.32C70.88 50.4667 72.672 50.04 74.72 50.04C79.0293 50.04 82.4427 51.512 84.96 54.456C87.52 57.3573 88.8 61.5387 88.8 67C88.8 70.6267 88.224 73.72 87.072 76.28C85.92 78.7973 84.3627 80.7173 82.4 82.04C80.4373 83.32 78.1973 83.96 75.68 83.96ZM73.12 81.72C74.4853 81.72 75.616 80.6533 76.512 78.52C77.4507 76.344 77.92 72.504 77.92 67C77.92 61.24 77.408 57.2933 76.384 55.16C75.4027 53.0267 73.9947 51.96 72.16 51.96C71.0507 51.96 69.92 52.3867 68.768 53.24C68.4267 53.496 67.9573 53.9227 67.36 54.52V76.6C67.744 77.5813 68.2133 78.4347 68.768 79.16C70.048 80.8667 71.4987 81.72 73.12 81.72ZM110.895 83.96C105.604 83.96 101.444 82.4667 98.415 79.48C95.4283 76.4507 93.935 72.2907 93.935 67C93.935 61.7093 95.4283 57.5707 98.415 54.584C101.444 51.5547 105.604 50.04 110.895 50.04C116.186 50.04 120.324 51.5547 123.311 54.584C126.34 57.5707 127.855 61.7093 127.855 67C127.855 72.2907 126.34 76.4507 123.311 79.48C120.324 82.4667 116.186 83.96 110.895 83.96ZM110.895 82.68C112.602 82.68 114.031 81.4853 115.183 79.096C116.378 76.7067 116.975 72.6747 116.975 67C116.975 61.3253 116.378 57.2933 115.183 54.904C114.031 52.5147 112.602 51.32 110.895 51.32C109.188 51.32 107.738 52.5147 106.543 54.904C105.391 57.2933 104.815 61.3253 104.815 67C104.815 72.6747 105.391 76.7067 106.543 79.096C107.738 81.4853 109.188 82.68 110.895 82.68ZM148.358 83.96C145.968 83.96 143.814 83.4693 141.894 82.488C140.016 81.464 138.544 80.1413 137.478 78.52C136.411 76.8987 135.878 75.192 135.878 73.4V52.92L132.038 51.96V51H140.358C144.198 51 146.118 52.92 146.118 56.76V73.4C146.118 76.088 146.587 78.1573 147.526 79.608C148.507 81.016 149.638 81.72 150.918 81.72C152.496 81.72 153.926 80.8667 155.206 79.16C155.675 78.52 156.166 77.6667 156.678 76.6V52.92L152.838 51.96V51H170.758V51.96L166.918 52.92V83.32H166.278C163.163 83.32 160.795 82.4667 159.174 80.76C158.448 79.992 157.936 79.1387 157.638 78.2C157.04 79.2667 156.336 80.2267 155.526 81.08C153.606 83 151.216 83.96 148.358 83.96ZM174.623 82.04L178.463 81.08V52.92L174.623 51.96V51H180.383C182.9 51 184.884 51.8107 186.335 53.432C186.889 54.072 187.359 54.8613 187.743 55.8C188.34 54.6907 189.044 53.7307 189.855 52.92C191.775 51 194.164 50.04 197.023 50.04C199.412 50.04 201.545 50.552 203.423 51.576C205.343 52.5573 206.836 53.8587 207.903 55.48C208.969 57.1013 209.503 58.808 209.503 60.6V81.08L213.343 82.04V83H205.023C201.183 83 199.263 81.08 199.263 77.24V60.6C199.263 57.912 198.772 55.864 197.791 54.456C196.852 53.0053 195.743 52.28 194.463 52.28C192.841 52.28 191.391 53.1333 190.111 54.84C189.556 55.5653 189.087 56.4187 188.703 57.4V81.08L192.543 82.04V83H174.623V82.04ZM234.465 83.96C229.004 83.96 224.758 82.4667 221.729 79.48C218.7 76.4507 217.185 72.2907 217.185 67C217.185 61.7093 218.7 57.5707 221.729 54.584C224.758 51.5547 229.004 50.04 234.465 50.04C238.39 50.04 241.334 50.7227 243.297 52.088C245.302 53.4533 246.305 55.1173 246.305 57.08C246.305 58.5307 245.857 59.704 244.961 60.6C244.108 61.4533 242.956 61.88 241.505 61.88C240.908 61.88 240.31 61.8373 239.713 61.752L238.945 61.56V51.96L238.049 51.64C237.409 51.4267 236.641 51.32 235.745 51.32C233.313 51.32 231.414 52.472 230.049 54.776C228.726 57.08 228.065 61.1547 228.065 67C228.065 72.6747 228.726 76.664 230.049 78.968C231.414 81.2293 233.313 82.36 235.745 82.36C237.409 82.36 238.945 81.976 240.353 81.208C241.804 80.3973 242.934 79.352 243.745 78.072C244.598 76.7493 245.025 75.4053 245.025 74.04H246.625C246.625 75.7467 246.113 77.368 245.089 78.904C244.065 80.44 242.636 81.6773 240.801 82.616C238.966 83.512 236.854 83.96 234.465 83.96ZM268.403 83.96C262.941 83.96 258.696 82.4667 255.667 79.48C252.637 76.4507 251.123 72.2907 251.123 67C251.123 63.544 251.784 60.536 253.107 57.976C254.429 55.416 256.264 53.4533 258.611 52.088C261 50.7227 263.731 50.04 266.803 50.04C269.875 50.04 272.563 50.616 274.867 51.768C277.213 52.92 279.005 54.4773 280.243 56.44C281.523 58.36 282.163 60.4933 282.163 62.84C282.163 63.9067 282.056 64.824 281.843 65.592L281.523 66.68C279.688 67.064 277.704 67.384 275.571 67.64C271.091 68.28 266.568 68.6 262.003 68.6C262.003 73.5493 262.685 77.0907 264.051 79.224C265.416 81.3147 267.293 82.36 269.683 82.36C271.347 82.36 272.883 81.976 274.291 81.208C275.741 80.3973 276.872 79.352 277.683 78.072C278.536 76.7493 278.963 75.4053 278.963 74.04H280.562C280.562 75.7467 280.051 77.368 279.027 78.904C278.003 80.44 276.573 81.6773 274.739 82.616C272.904 83.512 270.792 83.96 268.403 83.96ZM262.003 67C264.733 67 266.952 66.8933 268.659 66.68C269.384 66.6373 270.152 66.5307 270.963 66.36C271.005 66.1467 271.112 65.6773 271.283 64.952C271.496 63.8853 271.603 62.7547 271.603 61.56C271.603 58.0187 271.133 55.4373 270.195 53.816C269.256 52.152 268.125 51.32 266.803 51.32C263.603 51.32 262.003 56.5467 262.003 67Z" fill="black"/>
<path d="M3.36328 105.133C3.36328 105.789 3.57812 106.305 4.00781 106.68C4.4375 107.055 5.04297 107.316 5.82422 107.465L8.94141 108.074C9.44141 108.168 9.79688 108.34 10.0078 108.59C10.2188 108.832 10.3242 109.152 10.3242 109.551C10.3242 110.121 10.0859 110.547 9.60938 110.828C9.14062 111.102 8.46094 111.238 7.57031 111.238C6.90625 111.238 6.30078 111.137 5.75391 110.934C5.20703 110.73 4.77344 110.449 4.45312 110.09C4.14062 109.73 3.98438 109.332 3.98438 108.895C3.98438 108.645 3.94531 108.48 3.86719 108.402C3.79688 108.324 3.69531 108.285 3.5625 108.285C3.45312 108.285 3.35547 108.336 3.26953 108.438C3.18359 108.539 3.14062 108.691 3.14062 108.895L3.11719 111.543C3.11719 111.676 3.16406 111.785 3.25781 111.871C3.35156 111.957 3.46094 112 3.58594 112C3.70312 112 3.80078 111.961 3.87891 111.883C3.96484 111.797 4.00781 111.672 4.00781 111.508V110.805C4.4375 111.297 4.96484 111.652 5.58984 111.871C6.22266 112.09 6.90625 112.199 7.64062 112.199C8.80469 112.199 9.73047 111.98 10.418 111.543C11.1133 111.098 11.4609 110.438 11.4609 109.563C11.4609 108.758 11.2539 108.16 10.8398 107.77C10.4336 107.379 9.85156 107.109 9.09375 106.961L6.05859 106.352C5.50391 106.227 5.11719 106.055 4.89844 105.836C4.67969 105.609 4.57031 105.316 4.57031 104.957C4.57031 103.941 5.39844 103.434 7.05469 103.434C7.90625 103.434 8.625 103.555 9.21094 103.797C9.80469 104.039 10.207 104.406 10.418 104.898C10.4258 105.266 10.457 105.523 10.5117 105.672C10.5664 105.82 10.6914 105.895 10.8867 105.895C11.043 105.895 11.1562 105.859 11.2266 105.789C11.2969 105.719 11.3398 105.609 11.3555 105.461L11.3789 103.105C11.3789 102.926 11.332 102.785 11.2383 102.684C11.1445 102.582 11.0312 102.531 10.8984 102.531C10.7656 102.531 10.6484 102.586 10.5469 102.695C10.4453 102.797 10.3984 102.938 10.4062 103.117V103.551C10.1719 103.246 9.73828 102.992 9.10547 102.789C8.47266 102.578 7.81641 102.473 7.13672 102.473C6.06641 102.473 5.16797 102.676 4.44141 103.082C3.72266 103.488 3.36328 104.172 3.36328 105.133ZM19.2281 107.336C19.2281 108.313 19.4352 109.168 19.8492 109.902C20.2633 110.637 20.8453 111.203 21.5953 111.602C22.3453 112 23.2125 112.199 24.1969 112.199C25.1812 112.199 26.0484 112 26.7984 111.602C27.5484 111.203 28.1305 110.637 28.5445 109.902C28.9586 109.168 29.1656 108.313 29.1656 107.336C29.1656 106.352 28.9586 105.492 28.5445 104.758C28.1305 104.023 27.5484 103.461 26.7984 103.07C26.0484 102.672 25.1812 102.473 24.1969 102.473C23.2125 102.473 22.3453 102.672 21.5953 103.07C20.8453 103.461 20.2633 104.023 19.8492 104.758C19.4352 105.492 19.2281 106.352 19.2281 107.336ZM20.4937 107.336C20.4937 106.578 20.6383 105.906 20.9273 105.32C21.2242 104.727 21.65 104.266 22.2047 103.938C22.7672 103.602 23.4312 103.434 24.1969 103.434C24.9625 103.434 25.6227 103.602 26.1773 103.938C26.7398 104.266 27.1656 104.727 27.4547 105.32C27.7516 105.906 27.9 106.578 27.9 107.336C27.9 108.102 27.7516 108.781 27.4547 109.375C27.1656 109.961 26.7398 110.418 26.1773 110.746C25.6227 111.074 24.9625 111.238 24.1969 111.238C23.4312 111.238 22.7672 111.074 22.2047 110.746C21.65 110.418 21.2242 109.961 20.9273 109.375C20.6383 108.781 20.4937 108.102 20.4937 107.336ZM40.7883 111.496C40.7883 111.629 40.8352 111.746 40.9289 111.848C41.0227 111.949 41.1555 112 41.3273 112H43.2727C43.4289 112 43.55 111.953 43.6359 111.859C43.7219 111.758 43.7648 111.641 43.7648 111.508C43.7648 111.383 43.7219 111.273 43.6359 111.18C43.5578 111.086 43.4445 111.039 43.2961 111.039H41.9133V106.035C41.9211 105.598 42.0305 105.18 42.2414 104.781C42.4602 104.375 42.7375 104.051 43.0734 103.809C43.4094 103.559 43.7453 103.434 44.0812 103.434C44.4562 103.434 44.7414 103.613 44.9367 103.973C45.1398 104.324 45.2414 104.891 45.2414 105.672V111.496C45.2414 111.629 45.2883 111.746 45.382 111.848C45.4758 111.949 45.6086 112 45.7805 112H47.6203C47.7766 112 47.8977 111.953 47.9836 111.859C48.0695 111.758 48.1125 111.641 48.1125 111.508C48.1125 111.383 48.0695 111.273 47.9836 111.18C47.9055 111.086 47.7922 111.039 47.6437 111.039H46.3664V105.754C46.3664 105.035 46.2687 104.43 46.0734 103.938C45.8781 103.445 45.6125 103.078 45.2766 102.836C44.9484 102.594 44.5734 102.473 44.1516 102.473C43.6594 102.473 43.1984 102.633 42.7687 102.953C42.3469 103.273 41.9992 103.734 41.7258 104.336C41.5539 103.719 41.2844 103.254 40.9172 102.941C40.55 102.629 40.1359 102.473 39.675 102.473C39.175 102.473 38.7297 102.652 38.3391 103.012C37.9484 103.363 37.6398 103.863 37.4133 104.512L37.3547 103.105C37.3391 102.801 37.1867 102.648 36.8977 102.648C36.8664 102.648 36.7961 102.656 36.6867 102.672L34.7648 103.059C34.632 103.09 34.5344 103.152 34.4719 103.246C34.4094 103.332 34.3781 103.43 34.3781 103.539C34.3781 103.664 34.4211 103.77 34.507 103.855C34.593 103.941 34.7023 103.984 34.8352 103.984C34.9133 103.984 34.9914 103.973 35.0695 103.949L36.3352 103.691V111.039H35.0695C34.9133 111.039 34.7922 111.086 34.7062 111.18C34.6203 111.266 34.5773 111.371 34.5773 111.496C34.5773 111.629 34.6242 111.746 34.718 111.848C34.8117 111.949 34.9445 112 35.1164 112H38.4328C38.6125 112 38.7531 111.953 38.8547 111.859C38.9641 111.758 39.0187 111.641 39.0187 111.508C39.0187 111.383 38.968 111.273 38.8664 111.18C38.7727 111.086 38.6359 111.039 38.4562 111.039H37.4602V106.105C37.4758 105.652 37.5852 105.223 37.7883 104.816C37.9992 104.402 38.2609 104.07 38.5734 103.82C38.8937 103.563 39.2219 103.434 39.5578 103.434C39.9328 103.434 40.2297 103.617 40.4484 103.984C40.675 104.344 40.7883 104.906 40.7883 105.672V111.496ZM53.2781 107.23C53.2781 108.254 53.5008 109.141 53.9461 109.891C54.3914 110.633 55.0125 111.203 55.8094 111.602C56.6141 112 57.5398 112.199 58.5867 112.199C59.2508 112.199 59.9617 112.07 60.7195 111.813C61.4852 111.555 62.0711 111.207 62.4773 110.77C62.618 110.613 62.6883 110.449 62.6883 110.277C62.6883 110.137 62.6453 110.016 62.5594 109.914C62.4734 109.813 62.3602 109.762 62.2195 109.762C62.0633 109.762 61.9031 109.828 61.7391 109.961C61.2938 110.383 60.7859 110.703 60.2156 110.922C59.6531 111.133 59.0789 111.238 58.493 111.238C57.2898 111.238 56.3172 110.918 55.575 110.277C54.8328 109.637 54.4422 108.699 54.4031 107.465L61.7742 107.406C62.0477 107.406 62.2664 107.313 62.4305 107.125C62.5945 106.93 62.6766 106.684 62.6766 106.387C62.6766 105.551 62.493 104.84 62.1258 104.254C61.7664 103.668 61.2664 103.227 60.6258 102.93C59.993 102.625 59.2703 102.473 58.4578 102.473C57.5047 102.473 56.6336 102.664 55.8445 103.047C55.0633 103.43 54.4383 103.98 53.9695 104.699C53.5086 105.418 53.2781 106.262 53.2781 107.23ZM58.4813 103.434C59.7 103.434 60.5242 103.742 60.9539 104.359C61.3836 104.977 61.6258 105.707 61.6805 106.551L54.4383 106.598C54.5789 105.598 55.0008 104.82 55.7039 104.266C56.4148 103.711 57.3406 103.434 58.4813 103.434ZM77.9906 103.891C78.1391 103.891 78.2523 103.844 78.3305 103.75C78.4164 103.656 78.4594 103.543 78.4594 103.41C78.4594 103.285 78.4164 103.176 78.3305 103.082C78.2523 102.98 78.143 102.93 78.0023 102.93H73.643V100.129C73.643 99.957 73.6156 99.8281 73.5609 99.7422C73.5062 99.6485 73.393 99.6016 73.2211 99.6016C72.9945 99.6016 72.8305 99.7031 72.7289 99.9063C72.6352 100.102 72.5766 100.41 72.5531 100.832C72.5297 101.254 72.518 101.953 72.518 102.93H70.7953C70.6391 102.93 70.518 102.977 70.432 103.07C70.3461 103.156 70.3031 103.262 70.3031 103.387C70.3031 103.52 70.35 103.637 70.4437 103.738C70.5375 103.84 70.6703 103.891 70.8422 103.891H72.518V110.02C72.518 110.402 72.6547 110.762 72.9281 111.098C73.2094 111.434 73.5805 111.703 74.0414 111.906C74.5102 112.102 75.0102 112.199 75.5414 112.199C76.0648 112.199 76.5922 112.137 77.1234 112.012C77.6547 111.895 78.1195 111.742 78.518 111.555C78.9242 111.359 79.2094 111.164 79.3734 110.969C79.4125 110.914 79.432 110.855 79.432 110.793C79.432 110.66 79.3773 110.527 79.268 110.395C79.1586 110.262 79.0492 110.195 78.9398 110.195C78.8852 110.195 78.8422 110.211 78.8109 110.242C78.4359 110.523 77.9516 110.762 77.3578 110.957C76.7719 111.145 76.2055 111.238 75.6586 111.238C75.057 111.238 74.5687 111.109 74.1937 110.852C73.8266 110.586 73.643 110.172 73.643 109.609V103.891H77.9906ZM95.1562 111.039H93.4453C93.2891 111.039 93.168 111.086 93.082 111.18C92.9961 111.266 92.9531 111.371 92.9531 111.496C92.9531 111.629 93 111.746 93.0938 111.848C93.1875 111.949 93.3203 112 93.4922 112H97.5352C97.6914 112 97.8125 111.953 97.8984 111.859C97.9844 111.758 98.0273 111.641 98.0273 111.508C98.0273 111.383 97.9844 111.273 97.8984 111.18C97.8203 111.086 97.707 111.039 97.5586 111.039H96.2812V105.754C96.2812 104.707 96.0078 103.898 95.4609 103.328C94.9141 102.758 94.0898 102.473 92.9883 102.473C92.4648 102.473 91.9531 102.563 91.4531 102.742C90.9609 102.922 90.5273 103.168 90.1523 103.48C89.7773 103.785 89.4922 104.129 89.2969 104.512V98.6289C89.2969 98.3242 89.1367 98.1719 88.8164 98.1719C88.7852 98.1719 88.707 98.1797 88.582 98.1953L86.3672 98.418C86.2422 98.4258 86.1445 98.4805 86.0742 98.582C86.0117 98.6836 85.9805 98.7891 85.9805 98.8985C85.9805 99.0235 86.0234 99.1289 86.1094 99.2149C86.1953 99.293 86.3047 99.3281 86.4375 99.3203L88.1719 99.2149V111.039H86.9062C86.75 111.039 86.6289 111.086 86.543 111.18C86.457 111.266 86.4141 111.371 86.4141 111.496C86.4141 111.629 86.4609 111.746 86.5547 111.848C86.6484 111.949 86.7812 112 86.9531 112H90.5039C90.6836 112 90.8242 111.953 90.9258 111.859C91.0352 111.758 91.0898 111.641 91.0898 111.508C91.0898 111.383 91.0391 111.273 90.9375 111.18C90.8438 111.086 90.707 111.039 90.5273 111.039H89.2969V106.176C89.2969 105.762 89.457 105.34 89.7773 104.91C90.0977 104.48 90.543 104.129 91.1133 103.855C91.6914 103.574 92.3359 103.434 93.0469 103.434C93.7422 103.434 94.2656 103.629 94.6172 104.02C94.9766 104.41 95.1562 104.961 95.1562 105.672V111.039ZM108.724 99.25C108.724 99.5156 108.818 99.7422 109.005 99.9297C109.193 100.117 109.423 100.211 109.697 100.211C109.97 100.211 110.197 100.117 110.377 99.9297C110.564 99.7422 110.658 99.5156 110.658 99.25C110.658 98.9766 110.564 98.7461 110.377 98.5586C110.189 98.3711 109.963 98.2774 109.697 98.2774C109.431 98.2774 109.201 98.3711 109.005 98.5586C108.818 98.7461 108.724 98.9766 108.724 99.25ZM114.373 112C114.521 112 114.638 111.953 114.724 111.859C114.81 111.766 114.853 111.652 114.853 111.52C114.853 111.395 114.81 111.285 114.724 111.191C114.646 111.09 114.533 111.039 114.384 111.039H110.482V102.871C110.482 102.754 110.443 102.664 110.365 102.602C110.287 102.531 110.185 102.496 110.06 102.496C109.998 102.496 109.955 102.5 109.931 102.508L105.267 103.152C105.142 103.168 105.048 103.223 104.986 103.316C104.923 103.402 104.892 103.504 104.892 103.621C104.892 103.754 104.935 103.871 105.021 103.973C105.107 104.066 105.224 104.113 105.373 104.113L105.455 104.102L109.357 103.574V111.039H104.998C104.841 111.039 104.72 111.086 104.634 111.18C104.548 111.266 104.505 111.371 104.505 111.496C104.505 111.629 104.552 111.746 104.646 111.848C104.74 111.949 104.873 112 105.045 112H114.373ZM128.995 111.039H127.284C127.128 111.039 127.007 111.086 126.921 111.18C126.835 111.266 126.792 111.371 126.792 111.496C126.792 111.629 126.839 111.746 126.933 111.848C127.027 111.949 127.159 112 127.331 112H131.374C131.53 112 131.652 111.953 131.738 111.859C131.823 111.758 131.866 111.641 131.866 111.508C131.866 111.383 131.823 111.273 131.738 111.18C131.659 111.086 131.546 111.039 131.398 111.039H130.12V105.754C130.12 104.707 129.847 103.898 129.3 103.328C128.753 102.758 127.929 102.473 126.827 102.473C126.296 102.473 125.78 102.563 125.28 102.742C124.78 102.922 124.339 103.168 123.956 103.48C123.573 103.785 123.284 104.129 123.089 104.512L123.03 103.105C123.015 102.801 122.863 102.648 122.573 102.648C122.542 102.648 122.472 102.656 122.363 102.672L120.441 103.059C120.308 103.09 120.21 103.152 120.148 103.246C120.085 103.332 120.054 103.43 120.054 103.539C120.054 103.664 120.097 103.77 120.183 103.855C120.269 103.941 120.378 103.984 120.511 103.984C120.589 103.984 120.667 103.973 120.745 103.949L122.011 103.691V111.039H120.745C120.589 111.039 120.468 111.086 120.382 111.18C120.296 111.266 120.253 111.371 120.253 111.496C120.253 111.629 120.3 111.746 120.394 111.848C120.488 111.949 120.62 112 120.792 112H124.343C124.523 112 124.663 111.953 124.765 111.859C124.874 111.758 124.929 111.641 124.929 111.508C124.929 111.383 124.878 111.273 124.777 111.18C124.683 111.086 124.546 111.039 124.366 111.039H123.136V106.105C123.136 105.699 123.296 105.289 123.616 104.875C123.937 104.461 124.382 104.117 124.952 103.844C125.53 103.57 126.175 103.434 126.886 103.434C127.581 103.434 128.105 103.629 128.456 104.02C128.816 104.41 128.995 104.961 128.995 105.672V111.039ZM140.126 109.773C140.126 109.57 140.223 109.383 140.419 109.211C140.622 109.031 140.891 108.891 141.227 108.789C141.571 108.688 141.942 108.637 142.341 108.637C143.661 108.637 144.645 108.398 145.294 107.922C145.95 107.445 146.278 106.695 146.278 105.672C146.278 104.969 146.055 104.34 145.61 103.785L147.591 102.918C148.137 102.918 148.532 102.863 148.774 102.754C149.024 102.645 149.149 102.5 149.149 102.32C149.149 101.922 148.923 101.723 148.47 101.723C148.009 101.723 147.536 101.887 147.052 102.215L145.27 103.398C144.903 103.094 144.477 102.863 143.993 102.707C143.509 102.551 143.001 102.473 142.47 102.473C141.774 102.473 141.137 102.59 140.559 102.824C139.989 103.051 139.532 103.402 139.188 103.879C138.852 104.348 138.684 104.926 138.684 105.613C138.684 106.254 138.852 106.766 139.188 107.148C139.524 107.523 140.028 107.848 140.7 108.121C140.473 108.152 140.227 108.25 139.962 108.414C139.696 108.57 139.47 108.777 139.282 109.035C139.095 109.285 139.001 109.551 139.001 109.832C139.001 110.184 139.091 110.477 139.27 110.711C139.458 110.938 139.735 111.141 140.102 111.32C139.688 111.523 139.352 111.832 139.095 112.246C138.837 112.668 138.708 113.16 138.708 113.723C138.708 114.582 139.044 115.191 139.716 115.551C140.387 115.918 141.251 116.102 142.305 116.102C143.141 116.102 143.923 116 144.649 115.797C145.384 115.594 145.973 115.285 146.419 114.871C146.872 114.457 147.098 113.945 147.098 113.336C147.098 112.617 146.942 112.07 146.63 111.695C146.317 111.32 145.868 111.066 145.282 110.934C144.696 110.793 143.923 110.723 142.962 110.723H141.872C141.387 110.723 141.016 110.684 140.759 110.605C140.509 110.52 140.341 110.41 140.255 110.277C140.169 110.137 140.126 109.969 140.126 109.773ZM142.376 107.77C141.626 107.77 141.009 107.59 140.524 107.23C140.048 106.863 139.809 106.336 139.809 105.648C139.809 104.906 140.055 104.352 140.548 103.984C141.04 103.617 141.673 103.434 142.446 103.434C143.235 103.434 143.884 103.621 144.391 103.996C144.899 104.363 145.153 104.945 145.153 105.742C145.153 106.484 144.895 107.008 144.38 107.313C143.864 107.617 143.196 107.77 142.376 107.77ZM142.997 111.566C143.77 111.566 144.368 111.621 144.79 111.73C145.212 111.832 145.512 112.012 145.692 112.27C145.88 112.527 145.973 112.898 145.973 113.383C145.973 113.992 145.602 114.438 144.86 114.719C144.126 115 143.266 115.141 142.282 115.141C141.438 115.141 140.817 115.016 140.419 114.766C140.028 114.523 139.833 114.078 139.833 113.43C139.833 113.211 139.884 112.965 139.985 112.691C140.095 112.426 140.227 112.188 140.384 111.977C140.54 111.758 140.692 111.621 140.841 111.566H142.997ZM171.609 107.336C171.609 108.313 171.816 109.168 172.23 109.902C172.645 110.637 173.227 111.203 173.977 111.602C174.727 112 175.594 112.199 176.578 112.199C177.562 112.199 178.43 112 179.18 111.602C179.93 111.203 180.512 110.637 180.926 109.902C181.34 109.168 181.547 108.313 181.547 107.336C181.547 106.352 181.34 105.492 180.926 104.758C180.512 104.023 179.93 103.461 179.18 103.07C178.43 102.672 177.562 102.473 176.578 102.473C175.594 102.473 174.727 102.672 173.977 103.07C173.227 103.461 172.645 104.023 172.23 104.758C171.816 105.492 171.609 106.352 171.609 107.336ZM172.875 107.336C172.875 106.578 173.02 105.906 173.309 105.32C173.605 104.727 174.031 104.266 174.586 103.938C175.148 103.602 175.812 103.434 176.578 103.434C177.344 103.434 178.004 103.602 178.559 103.938C179.121 104.266 179.547 104.727 179.836 105.32C180.133 105.906 180.281 106.578 180.281 107.336C180.281 108.102 180.133 108.781 179.836 109.375C179.547 109.961 179.121 110.418 178.559 110.746C178.004 111.074 177.344 111.238 176.578 111.238C175.812 111.238 175.148 111.074 174.586 110.746C174.031 110.418 173.605 109.961 173.309 109.375C173.02 108.781 172.875 108.102 172.875 107.336ZM198.384 98.6758C198.384 98.4961 198.318 98.3516 198.185 98.2422C198.06 98.1328 197.904 98.0781 197.716 98.0781C196.076 98.0781 194.814 98.418 193.931 99.0977C193.056 99.7695 192.619 100.797 192.619 102.18V103.023H190.322C190.166 103.023 190.045 103.07 189.959 103.164C189.873 103.258 189.83 103.367 189.83 103.492C189.83 103.625 189.877 103.742 189.97 103.844C190.064 103.938 190.197 103.984 190.369 103.984H192.619V111.039H190.029C189.873 111.039 189.752 111.086 189.666 111.18C189.58 111.273 189.537 111.383 189.537 111.508C189.537 111.641 189.584 111.758 189.677 111.859C189.771 111.953 189.904 112 190.076 112H197.986C198.134 112 198.248 111.953 198.326 111.859C198.412 111.766 198.455 111.652 198.455 111.52C198.455 111.395 198.412 111.285 198.326 111.191C198.248 111.09 198.138 111.039 197.998 111.039H193.755L193.744 103.984H197.365C197.513 103.984 197.63 103.938 197.716 103.844C197.802 103.75 197.845 103.637 197.845 103.504C197.845 103.379 197.802 103.27 197.716 103.176C197.638 103.074 197.525 103.023 197.377 103.023H193.755V102.25C193.755 101.5 193.857 100.902 194.06 100.457C194.271 100.012 194.627 99.6758 195.127 99.4492C195.634 99.2149 196.345 99.0664 197.259 99.0039V100.094C197.259 100.289 197.314 100.441 197.423 100.551C197.533 100.652 197.662 100.703 197.81 100.703C197.966 100.703 198.099 100.648 198.209 100.539C198.326 100.422 198.384 100.258 198.384 100.047V98.6758ZM215.316 98.6758C215.316 98.4961 215.249 98.3516 215.116 98.2422C214.991 98.1328 214.835 98.0781 214.648 98.0781C213.007 98.0781 211.745 98.418 210.863 99.0977C209.988 99.7695 209.55 100.797 209.55 102.18V103.023H207.253C207.097 103.023 206.976 103.07 206.89 103.164C206.804 103.258 206.761 103.367 206.761 103.492C206.761 103.625 206.808 103.742 206.902 103.844C206.995 103.938 207.128 103.984 207.3 103.984H209.55V111.039H206.96C206.804 111.039 206.683 111.086 206.597 111.18C206.511 111.273 206.468 111.383 206.468 111.508C206.468 111.641 206.515 111.758 206.609 111.859C206.702 111.953 206.835 112 207.007 112H214.917C215.066 112 215.179 111.953 215.257 111.859C215.343 111.766 215.386 111.652 215.386 111.52C215.386 111.395 215.343 111.285 215.257 111.191C215.179 111.09 215.07 111.039 214.929 111.039H210.687L210.675 103.984H214.296C214.445 103.984 214.562 103.938 214.648 103.844C214.734 103.75 214.777 103.637 214.777 103.504C214.777 103.379 214.734 103.27 214.648 103.176C214.57 103.074 214.456 103.023 214.308 103.023H210.687V102.25C210.687 101.5 210.788 100.902 210.991 100.457C211.202 100.012 211.558 99.6758 212.058 99.4492C212.566 99.2149 213.277 99.0664 214.191 99.0039V100.094C214.191 100.289 214.245 100.441 214.355 100.551C214.464 100.652 214.593 100.703 214.741 100.703C214.898 100.703 215.03 100.648 215.14 100.539C215.257 100.422 215.316 100.258 215.316 100.047V98.6758ZM239.334 107.336C239.334 108.313 239.541 109.168 239.955 109.902C240.37 110.637 240.952 111.203 241.702 111.602C242.452 112 243.319 112.199 244.303 112.199C245.288 112.199 246.155 112 246.905 111.602C247.655 111.203 248.237 110.637 248.651 109.902C249.065 109.168 249.272 108.313 249.272 107.336C249.272 106.352 249.065 105.492 248.651 104.758C248.237 104.023 247.655 103.461 246.905 103.07C246.155 102.672 245.288 102.473 244.303 102.473C243.319 102.473 242.452 102.672 241.702 103.07C240.952 103.461 240.37 104.023 239.955 104.758C239.541 105.492 239.334 106.352 239.334 107.336ZM240.6 107.336C240.6 106.578 240.745 105.906 241.034 105.32C241.33 104.727 241.756 104.266 242.311 103.938C242.873 103.602 243.538 103.434 244.303 103.434C245.069 103.434 245.729 103.602 246.284 103.938C246.846 104.266 247.272 104.727 247.561 105.32C247.858 105.906 248.006 106.578 248.006 107.336C248.006 108.102 247.858 108.781 247.561 109.375C247.272 109.961 246.846 110.418 246.284 110.746C245.729 111.074 245.069 111.238 244.303 111.238C243.538 111.238 242.873 111.074 242.311 110.746C241.756 110.418 241.33 109.961 241.034 109.375C240.745 108.781 240.6 108.102 240.6 107.336ZM266.109 98.6758C266.109 98.4961 266.043 98.3516 265.91 98.2422C265.785 98.1328 265.629 98.0781 265.441 98.0781C263.801 98.0781 262.539 98.418 261.656 99.0977C260.781 99.7695 260.344 100.797 260.344 102.18V103.023H258.047C257.891 103.023 257.77 103.07 257.684 103.164C257.598 103.258 257.555 103.367 257.555 103.492C257.555 103.625 257.602 103.742 257.695 103.844C257.789 103.938 257.922 103.984 258.094 103.984H260.344V111.039H257.754C257.598 111.039 257.477 111.086 257.391 111.18C257.305 111.273 257.262 111.383 257.262 111.508C257.262 111.641 257.309 111.758 257.402 111.859C257.496 111.953 257.629 112 257.801 112H265.711C265.859 112 265.973 111.953 266.051 111.859C266.137 111.766 266.18 111.652 266.18 111.52C266.18 111.395 266.137 111.285 266.051 111.191C265.973 111.09 265.863 111.039 265.723 111.039H261.48L261.469 103.984H265.09C265.238 103.984 265.355 103.938 265.441 103.844C265.527 103.75 265.57 103.637 265.57 103.504C265.57 103.379 265.527 103.27 265.441 103.176C265.363 103.074 265.25 103.023 265.102 103.023H261.48V102.25C261.48 101.5 261.582 100.902 261.785 100.457C261.996 100.012 262.352 99.6758 262.852 99.4492C263.359 99.2149 264.07 99.0664 264.984 99.0039V100.094C264.984 100.289 265.039 100.441 265.148 100.551C265.258 100.652 265.387 100.703 265.535 100.703C265.691 100.703 265.824 100.648 265.934 100.539C266.051 100.422 266.109 100.258 266.109 100.047V98.6758ZM290.128 102.93C289.769 102.93 289.589 103.094 289.589 103.422C289.589 103.734 289.749 103.891 290.07 103.891H291.159C291.37 104.352 291.82 105.359 292.507 106.914C292.64 107.211 292.948 107.906 293.433 109C293.917 110.094 294.382 111.102 294.827 112.023L294.195 113.652C294.109 113.879 293.96 114.102 293.749 114.32C293.546 114.539 293.304 114.715 293.023 114.848C292.741 114.988 292.46 115.059 292.179 115.059C291.648 115.059 291.382 115.246 291.382 115.621C291.382 115.809 291.437 115.957 291.546 116.066C291.663 116.176 291.874 116.23 292.179 116.23C293.015 116.23 293.706 115.941 294.253 115.363C294.808 114.793 295.284 113.996 295.683 112.973L299.234 103.891H300.159C300.487 103.891 300.652 103.73 300.652 103.41C300.652 103.09 300.472 102.93 300.112 102.93H297.007C296.695 102.93 296.538 103.094 296.538 103.422C296.538 103.734 296.691 103.891 296.995 103.891H298.038L295.366 110.887L292.378 103.891H293.573C293.878 103.891 294.03 103.734 294.03 103.422C294.03 103.094 293.87 102.93 293.55 102.93H290.128ZM307.059 107.336C307.059 108.313 307.266 109.168 307.68 109.902C308.095 110.637 308.677 111.203 309.427 111.602C310.177 112 311.044 112.199 312.028 112.199C313.013 112.199 313.88 112 314.63 111.602C315.38 111.203 315.962 110.637 316.376 109.902C316.79 109.168 316.997 108.313 316.997 107.336C316.997 106.352 316.79 105.492 316.376 104.758C315.962 104.023 315.38 103.461 314.63 103.07C313.88 102.672 313.013 102.473 312.028 102.473C311.044 102.473 310.177 102.672 309.427 103.07C308.677 103.461 308.095 104.023 307.68 104.758C307.266 105.492 307.059 106.352 307.059 107.336ZM308.325 107.336C308.325 106.578 308.47 105.906 308.759 105.32C309.055 104.727 309.481 104.266 310.036 103.938C310.598 103.602 311.263 103.434 312.028 103.434C312.794 103.434 313.454 103.602 314.009 103.938C314.571 104.266 314.997 104.727 315.286 105.32C315.583 105.906 315.731 106.578 315.731 107.336C315.731 108.102 315.583 108.781 315.286 109.375C314.997 109.961 314.571 110.418 314.009 110.746C313.454 111.074 312.794 111.238 312.028 111.238C311.263 111.238 310.598 111.074 310.036 110.746C309.481 110.418 309.055 109.961 308.759 109.375C308.47 108.781 308.325 108.102 308.325 107.336ZM325.983 103C325.983 102.891 325.944 102.797 325.866 102.719C325.795 102.641 325.702 102.602 325.584 102.602C325.553 102.602 325.506 102.609 325.444 102.625L323.393 103.035C323.252 103.066 323.147 103.121 323.077 103.199C323.006 103.277 322.971 103.371 322.971 103.48C322.971 103.613 323.022 103.73 323.123 103.832C323.225 103.934 323.354 103.984 323.51 103.984C323.596 103.984 323.663 103.977 323.709 103.961L324.858 103.727V108.93C324.858 109.578 324.991 110.148 325.256 110.641C325.53 111.133 325.924 111.516 326.44 111.789C326.955 112.063 327.565 112.199 328.268 112.199C329.002 112.199 329.709 112.031 330.389 111.695C331.069 111.359 331.58 110.938 331.924 110.43L331.983 111.449C331.991 111.645 332.045 111.793 332.147 111.895C332.248 111.988 332.377 112.035 332.534 112.035H332.616L334.795 111.801C334.936 111.77 335.045 111.707 335.123 111.613C335.202 111.512 335.241 111.402 335.241 111.285C335.241 111.168 335.202 111.07 335.123 110.992C335.045 110.914 334.928 110.875 334.772 110.875H334.702L332.967 111.004V103C332.967 102.891 332.928 102.797 332.85 102.719C332.78 102.641 332.686 102.602 332.569 102.602C332.538 102.602 332.491 102.609 332.428 102.625L330.389 103.035C330.241 103.066 330.127 103.125 330.049 103.211C329.979 103.289 329.944 103.383 329.944 103.492C329.944 103.625 329.995 103.742 330.096 103.844C330.198 103.945 330.33 103.996 330.495 103.996C330.565 103.996 330.635 103.984 330.705 103.961L331.842 103.727V109.293C331.67 109.652 331.389 109.98 330.998 110.277C330.616 110.574 330.182 110.809 329.698 110.98C329.213 111.152 328.741 111.238 328.28 111.238C327.522 111.238 326.948 111.031 326.557 110.617C326.174 110.195 325.983 109.645 325.983 108.965V103Z" fill="black"/>
<path d="M17.8797 39.0295L16.1742 39.1666C16.0185 39.1791 15.9015 39.2355 15.8234 39.3358C15.7446 39.4284 15.7102 39.537 15.7202 39.6616C15.7309 39.7939 15.787 39.907 15.8886 40.0007C15.9902 40.0944 16.1266 40.1344 16.298 40.1206L20.3279 39.7967C20.4837 39.7842 20.6006 39.7277 20.6788 39.6274C20.7563 39.5193 20.7897 39.399 20.7791 39.2666C20.7691 39.142 20.7175 39.0365 20.6243 38.9499C20.5389 38.8627 20.4222 38.8251 20.2743 38.837L19.001 38.9393L18.5775 33.6711C18.4937 32.6276 18.1563 31.8436 17.5655 31.3189C16.9747 30.7942 16.1303 30.576 15.0322 30.6643C14.5105 30.7063 14.0076 30.8368 13.5236 31.056C13.0474 31.2745 12.6349 31.5546 12.2862 31.8961C11.9368 32.2299 11.6801 32.5954 11.5161 32.9926L11.0447 27.1287C11.0203 26.825 10.8484 26.686 10.5292 26.7117C10.498 26.7142 10.4208 26.7282 10.2974 26.7538L8.10753 27.1532C7.98356 27.171 7.8906 27.2334 7.82865 27.3402C7.77449 27.4465 7.75179 27.5541 7.76055 27.6631C7.77057 27.7877 7.82185 27.8894 7.9144 27.9682C8.00632 28.0392 8.11816 28.0655 8.24992 28.047L9.97027 27.8029L10.9178 39.5891L9.6562 39.6905C9.50045 39.7031 9.3835 39.7595 9.30535 39.8598C9.22658 39.9524 9.1922 40.0609 9.20221 40.1855C9.21286 40.3179 9.26897 40.431 9.37056 40.5247C9.47214 40.6184 9.6086 40.6584 9.77992 40.6446L13.3193 40.3601C13.4984 40.3457 13.6348 40.2877 13.7285 40.1861C13.8294 40.0761 13.8745 39.9549 13.8639 39.8225C13.8539 39.6979 13.7945 39.593 13.6858 39.5077C13.5848 39.4217 13.4448 39.386 13.2656 39.4004L12.0391 39.499L11.6494 34.6513C11.6163 34.2386 11.7421 33.8052 12.0269 33.3513C12.3118 32.8973 12.7275 32.5112 13.2741 32.1929C13.8278 31.8663 14.459 31.6744 15.1676 31.6175C15.8607 31.5618 16.3981 31.7145 16.7799 32.0757C17.1694 32.4363 17.3926 32.9709 17.4496 33.6795L17.8797 39.0295ZM26.4614 34.5187C26.5434 35.5388 26.8364 36.4049 27.3404 37.1168C27.8438 37.8209 28.5086 38.3396 29.3348 38.6729C30.1688 39.0056 31.1076 39.13 32.1511 39.0461C32.813 38.9929 33.5114 38.8074 34.2461 38.4897C34.9886 38.1714 35.5448 37.7779 35.9147 37.3092C36.0423 37.1422 36.0993 36.9731 36.0855 36.8017C36.0742 36.6616 36.0217 36.5443 35.9279 36.4499C35.8341 36.3556 35.7171 36.3141 35.5769 36.3253C35.4212 36.3378 35.2669 36.4169 35.114 36.5624C34.7039 37.0186 34.2234 37.3786 33.6724 37.6423C33.1286 37.8977 32.5647 38.0488 31.9807 38.0957C30.7814 38.1922 29.7862 37.9508 28.9951 37.3717C28.2039 36.7926 27.7394 35.8894 27.6016 34.6622L34.9443 34.0131C35.2169 33.9912 35.4274 33.8802 35.5759 33.6802C35.7238 33.4723 35.7858 33.2205 35.762 32.9246C35.6951 32.0913 35.4551 31.3974 35.0421 30.8427C34.637 30.2875 34.1032 29.8876 33.4408 29.643C32.7856 29.39 32.0531 29.296 31.2432 29.3611C30.2932 29.4375 29.4402 29.6981 28.6844 30.1429C27.9363 30.5871 27.3574 31.1862 26.9478 31.9402C26.5459 32.6936 26.3838 33.5531 26.4614 34.5187ZM31.3436 30.3171C32.5584 30.2194 33.4047 30.461 33.8825 31.0418C34.3602 31.6225 34.6602 32.3313 34.7823 33.1679L27.5672 33.795C27.6272 32.7869 27.9854 31.9783 28.6418 31.369C29.306 30.7591 30.2066 30.4085 31.3436 30.3171ZM42.8067 28.8901C42.4485 28.9189 42.2825 29.0968 42.3088 29.4239C42.3339 29.7353 42.506 29.8783 42.8253 29.8526L43.9117 29.7653C44.1588 30.2078 44.6874 31.1764 45.4972 32.671C45.6534 32.9563 46.0167 33.6246 46.5872 34.676C47.1577 35.7275 47.7018 36.6948 48.2195 37.578L47.7193 39.2524C47.6518 39.4851 47.5216 39.7189 47.3289 39.9539C47.144 40.1882 46.9166 40.3828 46.6469 40.5378C46.3779 40.7005 46.1031 40.7931 45.8228 40.8156C45.2933 40.8582 45.0435 41.0664 45.0736 41.4402C45.0886 41.6271 45.155 41.7706 45.2728 41.8709C45.3984 41.9705 45.613 42.0081 45.9167 41.9837C46.75 41.9167 47.416 41.5732 47.9148 40.9531C48.422 40.3402 48.8331 39.5077 49.1483 38.4556L51.9599 29.1183L52.8827 29.0441C53.2098 29.0178 53.3605 28.845 53.3348 28.5257C53.3091 28.2064 53.1172 28.0612 52.759 28.09L49.6635 28.3388C49.352 28.3639 49.2094 28.5399 49.2357 28.867C49.2607 29.1785 49.4251 29.322 49.7288 29.2976L50.7684 29.2141L48.6658 36.4018L45.1265 29.6676L46.318 29.5718C46.6217 29.5474 46.761 29.3795 46.736 29.068C46.7097 28.7409 46.5369 28.5902 46.2176 28.6159L42.8067 28.8901ZM77.7998 28.2872C77.8524 28.9414 78.1079 29.4381 78.5663 29.7775C79.0246 30.1168 79.6491 30.3292 80.4397 30.4146L83.5957 30.7722C84.1016 30.8256 84.4697 30.9684 84.7 31.2007C84.9297 31.4252 85.0605 31.736 85.0924 32.1332C85.1381 32.7017 84.9347 33.1452 84.4822 33.4637C84.0369 33.7738 83.3703 33.9646 82.4826 34.0359C81.8207 34.0892 81.209 34.0364 80.6476 33.8778C80.0862 33.7191 79.6315 33.4735 79.2834 33.141C78.9431 32.8078 78.7554 32.4232 78.7204 31.9871C78.7003 31.7379 78.6483 31.5775 78.5641 31.5059C78.4878 31.4336 78.3834 31.4028 78.251 31.4135C78.142 31.4222 78.0487 31.4807 77.9712 31.5888C77.8937 31.6969 77.8631 31.8522 77.8793 32.0547L78.0682 34.6965C78.0788 34.8289 78.1343 34.9341 78.2347 35.0123C78.335 35.0904 78.4475 35.1245 78.5721 35.1145C78.6889 35.1051 78.7831 35.0583 78.8547 34.9742C78.9335 34.8816 78.9663 34.7536 78.9531 34.5901L78.8968 33.8892C79.3645 34.3454 79.9187 34.6574 80.5592 34.8254C81.2075 34.9928 81.8977 35.047 82.6297 34.9882C83.79 34.8949 84.6953 34.6026 85.3455 34.1115C86.0029 33.6119 86.2965 32.926 86.2264 32.0538C86.1619 31.2517 85.9077 30.6725 85.4636 30.3164C85.0274 29.9595 84.4256 29.7375 83.6584 29.6503L80.5841 29.2861C80.0212 29.2059 79.622 29.0656 79.3864 28.8651C79.1502 28.6568 79.0177 28.3735 78.9889 28.0153C78.9075 27.0029 79.6923 26.4304 81.3432 26.2977C82.192 26.2294 82.9182 26.2925 83.5216 26.487C84.1329 26.6808 84.5634 27.0146 84.8131 27.4883C84.8503 27.8537 84.9021 28.1082 84.9685 28.2517C85.0349 28.3953 85.1654 28.4593 85.3601 28.4436C85.5159 28.4311 85.626 28.387 85.6904 28.3113C85.7549 28.2355 85.7889 28.1231 85.7926 27.9739L85.6272 25.6241C85.6128 25.445 85.5548 25.3086 85.4533 25.2148C85.3517 25.1211 85.2347 25.0796 85.1023 25.0902C84.9699 25.1009 84.8575 25.1648 84.765 25.2819C84.6719 25.3913 84.6365 25.5352 84.6586 25.7137L84.6934 26.1459C84.4354 25.861 83.9828 25.6426 83.3358 25.4909C82.6881 25.3313 82.0255 25.2788 81.348 25.3332C80.2811 25.419 79.4018 25.6935 78.7102 26.1566C78.0263 26.6192 77.7228 27.3294 77.7998 28.2872ZM93.7902 29.212C93.8685 30.1854 94.1434 31.0215 94.615 31.7204C95.0865 32.4192 95.7121 32.9372 96.4916 33.2742C97.2711 33.6113 98.1515 33.7404 99.1327 33.6615C100.114 33.5826 100.962 33.3145 101.678 32.8573C102.394 32.4 102.928 31.7888 103.282 31.0236C103.636 30.2584 103.774 29.3891 103.696 28.4157C103.617 27.4345 103.342 26.5945 102.87 25.8956C102.398 25.1968 101.773 24.6827 100.994 24.3535C100.215 24.0164 99.3345 23.8873 98.3533 23.9662C97.3721 24.0451 96.5236 24.3131 95.808 24.7704C95.0917 25.2199 94.5566 25.8272 94.2027 26.5924C93.8488 27.3576 93.7113 28.2308 93.7902 29.212ZM95.0518 29.1106C94.991 28.3552 95.0813 27.6739 95.3225 27.0667C95.5708 26.4511 95.9583 25.9575 96.4849 25.586C97.0187 25.206 97.6671 24.9854 98.4303 24.924C99.1934 24.8627 99.8649 24.9772 100.445 25.2676C101.032 25.5496 101.493 25.975 101.829 26.5436C102.172 27.1039 102.373 27.7617 102.434 28.5171C102.496 29.2803 102.402 29.9697 102.154 30.5853C101.913 31.1925 101.525 31.6822 100.99 32.0543C100.464 32.4259 99.8188 32.6423 99.0557 32.7036C98.2925 32.765 97.6174 32.6547 97.0305 32.3727C96.4513 32.09 95.9902 31.6686 95.6474 31.1083C95.3116 30.5397 95.1131 29.8737 95.0518 29.1106ZM118.924 24.6874C118.94 24.882 119.006 25.0295 119.124 25.1298C119.241 25.2222 119.374 25.2625 119.522 25.2506C119.678 25.2381 119.806 25.173 119.906 25.0552C120.013 24.929 120.059 24.7607 120.042 24.5505L119.912 22.9385C119.893 22.7049 119.801 22.5359 119.636 22.4316C119.471 22.3273 119.202 22.2902 118.828 22.3203C116.663 22.4943 115.191 23.2984 114.413 24.7326L114.269 23.5215C114.244 23.3041 114.195 23.1433 114.124 23.0393C114.061 22.9347 113.944 22.8892 113.772 22.903C113.694 22.9093 113.606 22.9282 113.507 22.9597L111.541 23.5174C111.434 23.5495 111.353 23.6109 111.297 23.7016C111.241 23.7845 111.217 23.8804 111.226 23.9894C111.236 24.114 111.284 24.2199 111.369 24.3071C111.463 24.3937 111.583 24.431 111.731 24.4191C111.793 24.4141 111.84 24.4065 111.87 24.3962L113.272 23.9896L113.861 31.3136L111.723 31.4855C111.567 31.498 111.45 31.5544 111.372 31.6547C111.294 31.7551 111.26 31.8675 111.27 31.9921C111.281 32.1245 111.337 32.2376 111.438 32.3313C111.539 32.4172 111.675 32.4533 111.847 32.4396L118.972 31.8667C119.12 31.8548 119.233 31.7987 119.311 31.6984C119.389 31.5903 119.423 31.4739 119.413 31.3493C119.402 31.2169 119.35 31.1075 119.257 31.0209C119.172 30.9337 119.055 30.8961 118.907 30.908L114.982 31.2235L114.565 26.0371C114.814 25.2333 115.323 24.5967 116.093 24.1273C116.862 23.6501 117.768 23.3695 118.811 23.2856L118.924 24.6874ZM135.801 23.3306C135.817 23.5253 135.883 23.6728 136.001 23.7731C136.118 23.8655 136.251 23.9058 136.399 23.8939C136.554 23.8814 136.682 23.8162 136.783 23.6985C136.89 23.5723 136.935 23.404 136.919 23.1938L136.789 21.5818C136.77 21.3482 136.678 21.1792 136.513 21.0749C136.348 20.9706 136.078 20.9335 135.705 20.9636C133.54 21.1376 132.068 21.9417 131.29 23.3758L131.146 22.1648C131.12 21.9473 131.072 21.7866 131.001 21.6826C130.938 21.578 130.82 21.5325 130.649 21.5463C130.571 21.5526 130.483 21.5714 130.383 21.6029L128.418 22.1607C128.311 22.1928 128.229 22.2542 128.174 22.3449C128.118 22.4278 128.094 22.5237 128.103 22.6327C128.113 22.7573 128.161 22.8632 128.246 22.9504C128.339 23.037 128.46 23.0743 128.608 23.0624C128.67 23.0574 128.717 23.0498 128.747 23.0395L130.149 22.6329L130.737 29.9569L128.6 30.1287C128.444 30.1413 128.327 30.1977 128.249 30.298C128.171 30.3984 128.137 30.5108 128.147 30.6354C128.157 30.7678 128.214 30.8809 128.315 30.9746C128.416 31.0605 128.552 31.0966 128.724 31.0828L135.849 30.51C135.997 30.4981 136.11 30.442 136.188 30.3417C136.266 30.2336 136.299 30.1172 136.289 29.9926C136.279 29.8602 136.227 29.7507 136.134 29.6642C136.048 29.577 135.932 29.5393 135.784 29.5512L131.859 29.8668L131.442 24.6804C131.691 23.8766 132.2 23.24 132.97 22.7706C133.738 22.2933 134.645 22.0128 135.688 21.9289L135.801 23.3306ZM144.068 20.7498C143.709 20.7786 143.543 20.9565 143.57 21.2836C143.595 21.5951 143.767 21.738 144.086 21.7123L145.172 21.625C145.42 22.0675 145.948 23.0361 146.758 24.5307C146.914 24.816 147.278 25.4843 147.848 26.5358C148.418 27.5872 148.963 28.5545 149.48 29.4377L148.98 31.1121C148.913 31.3448 148.782 31.5787 148.59 31.8136C148.405 32.0479 148.177 32.2426 147.908 32.3975C147.639 32.5602 147.364 32.6528 147.084 32.6753C146.554 32.7179 146.304 32.9261 146.334 33.2999C146.349 33.4868 146.416 33.6304 146.534 33.7306C146.659 33.8303 146.874 33.8679 147.178 33.8435C148.011 33.7765 148.677 33.4329 149.176 32.8128C149.683 32.1999 150.094 31.3674 150.409 30.3153L153.221 20.978L154.144 20.9038C154.471 20.8775 154.621 20.7047 154.596 20.3854C154.57 20.0662 154.378 19.9209 154.02 19.9497L150.924 20.1986C150.613 20.2236 150.47 20.3997 150.497 20.7267C150.522 21.0382 150.686 21.1818 150.99 21.1573L152.029 21.0738L149.927 28.2615L146.387 21.5273L147.579 21.4315C147.882 21.4071 148.022 21.2392 147.997 20.9277C147.97 20.6006 147.798 20.4499 147.478 20.4756L144.068 20.7498ZM178.014 22.3355C178.096 23.3557 178.385 24.222 178.881 24.9345C179.377 25.6393 180.038 26.1583 180.864 26.4916C181.69 26.8249 182.621 26.9499 183.657 26.8667C184.319 26.8134 185.01 26.6325 185.729 26.3238C186.456 26.0067 187.004 25.61 187.374 25.1336C187.501 24.9665 187.558 24.7974 187.545 24.6261C187.531 24.4625 187.483 24.3449 187.399 24.2733C187.314 24.2017 187.214 24.1706 187.097 24.18C186.91 24.195 186.756 24.2701 186.633 24.4054C186.186 24.8881 185.729 25.2462 185.262 25.4797C184.795 25.7132 184.203 25.8587 183.486 25.9163C182.256 26.0152 181.248 25.7592 180.462 25.1484C179.683 24.5291 179.241 23.5614 179.135 22.2454C179.072 21.4588 179.189 20.7715 179.487 20.1832C179.784 19.5872 180.243 19.1113 180.865 18.7557C181.495 18.3994 182.261 18.1849 183.165 18.1123C183.585 18.0785 183.989 18.0852 184.377 18.1324C184.773 18.179 185.173 18.284 185.578 18.4473L185.675 18.9216C185.808 19.6006 185.929 20.0807 186.038 20.362C186.146 20.6354 186.313 20.7631 186.539 20.7449C186.765 20.7268 186.929 20.6273 187.032 20.4466C187.143 20.2653 187.187 20.0345 187.165 19.7541C187.084 18.7495 186.663 18.0427 185.901 17.6337C185.139 17.2247 184.143 17.0696 182.913 17.1685C181.939 17.2468 181.067 17.509 180.295 17.955C179.524 18.4011 178.929 19.0014 178.512 19.7561C178.102 20.5101 177.936 21.3699 178.014 22.3355ZM202.202 19.6504L201.354 19.7773C200.092 19.965 199.088 20.1554 198.344 20.3485C197.607 20.541 196.998 20.8643 196.517 21.3183C196.036 21.7724 195.828 22.4043 195.893 23.2142C195.958 24.0163 196.255 24.6391 196.784 25.0824C197.313 25.518 198.014 25.7008 198.886 25.6307C199.696 25.5656 200.432 25.3614 201.094 25.0182C201.764 24.6743 202.272 24.2729 202.619 23.8139C202.757 24.3593 202.97 24.7184 203.258 24.8912C203.546 25.0562 203.888 25.1227 204.286 25.0908C204.636 25.0626 204.965 24.9617 205.272 24.7881C205.587 24.606 205.858 24.3726 206.086 24.0878C206.158 24.0037 206.189 23.9032 206.179 23.7864C206.169 23.6618 206.117 23.5523 206.024 23.458C205.93 23.3636 205.825 23.3211 205.708 23.3305C205.606 23.3387 205.517 23.3929 205.439 23.4932C205.318 23.644 205.149 23.7908 204.933 23.9336C204.717 24.0685 204.507 24.1442 204.305 24.1604C204.118 24.1755 203.966 24.1406 203.85 24.056C203.733 23.9635 203.663 23.781 203.641 23.5084L203.348 19.8639C203.272 18.9139 203.107 18.1355 202.855 17.5288C202.602 16.9143 202.205 16.4602 201.664 16.1667C201.131 15.8725 200.416 15.7614 199.521 15.8334C198.726 15.8973 198.03 16.0591 197.432 16.3188C196.833 16.5785 196.378 16.909 196.065 17.3104C195.753 17.7117 195.615 18.146 195.653 18.6132C195.673 18.8624 195.748 19.0602 195.877 19.2066C196.014 19.3523 196.195 19.4161 196.421 19.3979C196.686 19.3767 196.861 19.2098 196.945 18.8973C197.03 18.5848 197.064 18.1275 197.047 17.5254C197.444 17.3053 197.843 17.1401 198.241 17.0296C198.647 16.9108 199.095 16.8317 199.586 16.7922C200.458 16.7221 201.089 16.9144 201.478 17.369C201.875 17.823 202.11 18.5056 202.184 19.4167L202.202 19.6504ZM202.466 22.9327C202.081 23.4104 201.569 23.8083 200.928 24.1262C200.294 24.4358 199.631 24.6184 198.938 24.6742C198.401 24.7174 197.958 24.6197 197.61 24.3812C197.268 24.1343 197.074 23.715 197.026 23.1231C196.983 22.578 197.136 22.1503 197.488 21.8399C197.839 21.5295 198.326 21.2944 198.948 21.1347C199.577 20.9665 200.525 20.7688 201.792 20.5416L202.267 20.4563L202.466 22.9327ZM220.378 22.7508L218.673 22.8879C218.517 22.9004 218.4 22.9568 218.322 23.0572C218.243 23.1497 218.209 23.2583 218.219 23.3829C218.229 23.5153 218.285 23.6283 218.387 23.722C218.488 23.8158 218.625 23.8557 218.796 23.842L222.826 23.518C222.982 23.5055 223.099 23.449 223.177 23.3487C223.255 23.2406 223.288 23.1203 223.277 22.988C223.267 22.8634 223.216 22.7578 223.123 22.6712C223.037 22.584 222.921 22.5464 222.773 22.5583L221.499 22.6606L221.076 17.3925C220.992 16.349 220.655 15.5649 220.064 15.0402C219.473 14.5156 218.629 14.2974 217.531 14.3856C217.001 14.4282 216.494 14.5591 216.01 14.7782C215.526 14.9974 215.106 15.2781 214.749 15.6203C214.392 15.9546 214.132 16.3205 213.968 16.7177L213.797 15.3207C213.757 15.0182 213.593 14.8786 213.304 14.9017C213.273 14.9042 213.204 14.9176 213.096 14.942L211.211 15.4815C211.081 15.5233 210.989 15.5934 210.934 15.6918C210.879 15.7825 210.856 15.8823 210.864 15.9914C210.874 16.116 210.926 16.2177 211.018 16.2964C211.111 16.3752 211.223 16.4093 211.356 16.3986C211.433 16.3924 211.51 16.3744 211.586 16.3448L212.827 15.9864L213.416 23.3104L212.154 23.4118C211.999 23.4244 211.882 23.4808 211.804 23.5811C211.725 23.6737 211.69 23.7823 211.701 23.9069C211.711 24.0392 211.767 24.1523 211.869 24.246C211.97 24.3397 212.107 24.3797 212.278 24.3659L215.818 24.0814C215.997 24.067 216.133 24.009 216.227 23.9074C216.328 23.7974 216.373 23.6762 216.362 23.5439C216.352 23.4193 216.293 23.3143 216.184 23.229C216.083 23.1431 215.943 23.1073 215.764 23.1217L214.537 23.2203L214.142 18.3026C214.11 17.8976 214.236 17.4759 214.522 17.0375C214.809 16.5991 215.225 16.2208 215.771 15.9026C216.326 15.5837 216.957 15.3958 217.666 15.3388C218.359 15.2831 218.896 15.4358 219.278 15.797C219.668 16.1576 219.891 16.6922 219.948 17.4008L220.378 22.7508ZM255.388 20.9003C255.575 20.8853 255.716 20.827 255.809 20.7254C255.902 20.6161 255.943 20.4913 255.932 20.3511C255.921 20.2187 255.861 20.106 255.752 20.0129C255.643 19.9198 255.498 19.8804 255.319 19.8948L251.979 20.1634L251.04 8.49402L254.381 8.22545C254.56 8.21105 254.697 8.15306 254.79 8.05147C254.884 7.9421 254.925 7.82122 254.914 7.68884C254.903 7.54866 254.839 7.43234 254.721 7.33987C254.612 7.24677 254.468 7.20742 254.289 7.22182L246.287 7.86506C246.1 7.88008 245.956 7.94259 245.856 8.05259C245.762 8.16197 245.722 8.28674 245.733 8.42691C245.743 8.5593 245.803 8.67204 245.913 8.76514C246.029 8.84982 246.177 8.88497 246.356 8.87057L249.919 8.58416L250.857 20.2535L247.294 20.54C247.115 20.5544 246.975 20.6166 246.874 20.7266C246.781 20.8359 246.74 20.9568 246.751 21.0892C246.762 21.2294 246.822 21.346 246.932 21.4391C247.048 21.5238 247.2 21.5586 247.387 21.5436L255.388 20.9003Z" fill="black"/>
<path d="M25.112 145V143.56H28.28V135.016C28.28 134.888 28.232 134.776 28.136 134.68C28.04 134.584 27.928 134.536 27.8 134.536H25.472V133.096H28.4C28.864 133.096 29.224 133.216 29.48 133.456C29.736 133.696 29.864 134.048 29.864 134.512V135.184H29.96C30.136 134.432 30.48 133.848 30.992 133.432C31.52 133.016 32.2 132.808 33.032 132.808H35.432V134.584H33.032C32.056 134.584 31.296 134.904 30.752 135.544C30.224 136.184 29.96 137.04 29.96 138.112V143.56H33.728V145H25.112ZM57.7906 145.288C56.6866 145.288 55.7106 145.032 54.8626 144.52C54.0146 143.992 53.3426 143.264 52.8466 142.336C52.3666 141.392 52.1266 140.288 52.1266 139.024C52.1266 137.76 52.3666 136.664 52.8466 135.736C53.3266 134.808 53.9906 134.088 54.8386 133.576C55.7026 133.064 56.7026 132.808 57.8386 132.808C58.9906 132.808 59.9666 133.072 60.7666 133.6C61.5666 134.112 62.1746 134.784 62.5906 135.616C63.0066 136.448 63.2146 137.344 63.2146 138.304C63.2146 138.464 63.2146 138.632 63.2146 138.808C63.2146 138.984 63.2066 139.184 63.1906 139.408H53.7586C53.8066 140.384 54.0226 141.192 54.4066 141.832C54.8066 142.456 55.3026 142.928 55.8946 143.248C56.5026 143.552 57.1346 143.704 57.7906 143.704C58.7666 143.704 59.5186 143.504 60.0466 143.104C60.5906 142.688 60.9906 142.128 61.2466 141.424H62.8786C62.6226 142.496 62.0706 143.408 61.2226 144.16C60.3906 144.912 59.2466 145.288 57.7906 145.288ZM57.7666 134.344C56.7586 134.344 55.8706 134.656 55.1026 135.28C54.3506 135.904 53.9106 136.768 53.7826 137.872H61.5826C61.5186 136.752 61.1346 135.888 60.4306 135.28C59.7426 134.656 58.8546 134.344 57.7666 134.344ZM84.1813 145.288C83.2373 145.288 82.4532 145.12 81.8292 144.784C81.2212 144.448 80.7652 144 80.4612 143.44C80.1732 142.88 80.0292 142.272 80.0292 141.616C80.0292 140.368 80.4852 139.44 81.3973 138.832C82.3253 138.208 83.4933 137.896 84.9013 137.896H88.3093V137.68C88.3093 136.56 88.0373 135.72 87.4933 135.16C86.9653 134.584 86.2053 134.296 85.2132 134.296C84.3813 134.296 83.6933 134.48 83.1493 134.848C82.6213 135.2 82.2853 135.76 82.1413 136.528H80.3652C80.4452 135.728 80.7092 135.056 81.1572 134.512C81.6212 133.952 82.2053 133.528 82.9093 133.24C83.6133 132.952 84.3813 132.808 85.2132 132.808C86.8772 132.808 88.0853 133.264 88.8373 134.176C89.6053 135.072 89.9893 136.24 89.9893 137.68V145H88.5493L88.3813 143.08H88.2373C87.8853 143.672 87.3973 144.192 86.7733 144.64C86.1493 145.072 85.2853 145.288 84.1813 145.288ZM84.4453 143.752C85.2453 143.752 85.9333 143.552 86.5093 143.152C87.0853 142.752 87.5253 142.232 87.8293 141.592C88.1493 140.952 88.3093 140.28 88.3093 139.576V139.336H85.0213C83.8373 139.336 82.9973 139.544 82.5013 139.96C82.0213 140.376 81.7813 140.912 81.7813 141.568C81.7813 142.24 82.0053 142.776 82.4533 143.176C82.9013 143.56 83.5653 143.752 84.4453 143.752ZM107.332 145V143.56H111.412V129.64C111.412 129.32 111.252 129.16 110.932 129.16H107.812V127.72H111.412C112.532 127.72 113.092 128.28 113.092 129.4V143.56H117.172V145H107.332ZM171.081 150.28V143.08C170.761 143.688 170.305 144.208 169.713 144.64C169.121 145.072 168.313 145.288 167.289 145.288C166.265 145.288 165.353 145.048 164.553 144.568C163.769 144.088 163.153 143.384 162.705 142.456C162.257 141.528 162.033 140.4 162.033 139.072C162.033 137.744 162.257 136.616 162.705 135.688C163.153 134.744 163.761 134.032 164.529 133.552C165.313 133.056 166.193 132.808 167.169 132.808C168.129 132.808 168.937 133.016 169.593 133.432C170.265 133.848 170.761 134.376 171.081 135.016H171.225L171.465 133.096H172.761V150.28H171.081ZM167.409 143.704C168.481 143.704 169.361 143.32 170.049 142.552C170.737 141.784 171.081 140.616 171.081 139.048C171.081 137.48 170.737 136.312 170.049 135.544C169.361 134.776 168.481 134.392 167.409 134.392C166.337 134.392 165.457 134.776 164.769 135.544C164.081 136.312 163.737 137.48 163.737 139.048C163.737 140.616 164.081 141.784 164.769 142.552C165.457 143.32 166.337 143.704 167.409 143.704ZM194.328 145.288C192.872 145.288 191.784 144.864 191.064 144.016C190.344 143.152 189.984 141.936 189.984 140.368V133.096H191.664V140.176C191.664 141.28 191.912 142.144 192.408 142.768C192.904 143.392 193.664 143.704 194.688 143.704C195.68 143.704 196.528 143.368 197.232 142.696C197.936 142.008 198.288 141.024 198.288 139.744V133.096H199.968V145H198.6L198.384 143.2H198.288C197.968 143.76 197.456 144.248 196.752 144.664C196.064 145.08 195.256 145.288 194.328 145.288ZM222.398 130.792C221.998 130.792 221.646 130.648 221.342 130.36C221.054 130.056 220.91 129.704 220.91 129.304C220.91 128.888 221.054 128.536 221.342 128.248C221.646 127.96 221.998 127.816 222.398 127.816C222.814 127.816 223.166 127.96 223.454 128.248C223.742 128.536 223.886 128.888 223.886 129.304C223.886 129.704 223.742 130.056 223.454 130.36C223.166 130.648 222.814 130.792 222.398 130.792ZM217.814 145V143.56H221.654V135.016C221.654 134.696 221.494 134.536 221.174 134.536H218.294V133.096H221.654C222.774 133.096 223.334 133.656 223.334 134.776V143.56H227.174V145H217.814ZM250.157 145.288C249.133 145.288 248.205 145.048 247.373 144.568C246.541 144.072 245.877 143.36 245.381 142.432C244.885 141.504 244.637 140.376 244.637 139.048C244.637 137.72 244.885 136.592 245.381 135.664C245.893 134.736 246.565 134.032 247.397 133.552C248.229 133.056 249.149 132.808 250.157 132.808C251.613 132.808 252.757 133.168 253.589 133.888C254.437 134.608 254.981 135.56 255.221 136.744H253.541C253.333 136.024 252.933 135.456 252.341 135.04C251.765 134.608 251.037 134.392 250.157 134.392C249.501 134.392 248.885 134.56 248.309 134.896C247.733 135.232 247.261 135.744 246.893 136.432C246.541 137.104 246.365 137.976 246.365 139.048C246.365 140.104 246.541 140.984 246.893 141.688C247.261 142.376 247.733 142.888 248.309 143.224C248.885 143.56 249.501 143.728 250.157 143.728C251.101 143.728 251.853 143.512 252.413 143.08C252.973 142.632 253.349 142.056 253.541 141.352H255.221C254.933 142.584 254.349 143.552 253.469 144.256C252.605 144.944 251.501 145.288 250.157 145.288ZM273.116 145V127.72H274.796V138.16L280.004 133.096H282.164L276.668 138.4V138.544L282.812 145H280.724L274.796 138.76V145H273.116ZM303.13 140.056L303.034 136.624H303.658C305.002 136.624 306.082 136.344 306.898 135.784C307.73 135.208 308.146 134.216 308.146 132.808C308.146 131.736 307.834 130.912 307.21 130.336C306.586 129.744 305.73 129.448 304.642 129.448C303.602 129.448 302.77 129.736 302.146 130.312C301.522 130.888 301.17 131.672 301.09 132.664H299.482C299.514 131.72 299.754 130.896 300.202 130.192C300.65 129.472 301.25 128.912 302.002 128.512C302.77 128.112 303.65 127.912 304.642 127.912C305.65 127.912 306.538 128.112 307.306 128.512C308.09 128.896 308.698 129.456 309.13 130.192C309.562 130.912 309.778 131.784 309.778 132.808C309.778 133.992 309.53 134.944 309.034 135.664C308.538 136.368 307.898 136.888 307.114 137.224C306.33 137.56 305.506 137.76 304.642 137.824L304.57 140.056H303.13ZM303.826 145C303.394 145 303.018 144.848 302.698 144.544C302.394 144.224 302.242 143.848 302.242 143.416C302.242 142.984 302.394 142.616 302.698 142.312C303.018 141.992 303.394 141.832 303.826 141.832C304.258 141.832 304.626 141.992 304.93 142.312C305.25 142.616 305.41 142.984 305.41 143.416C305.41 143.848 305.25 144.224 304.93 144.544C304.626 144.848 304.258 145 303.826 145Z" fill="black"/>
</svg>
